# xmcd CD database file
#
# Track frame offsets:
#	150
#	42878
#	58042
#	68317
#	91729
#	110533
#	143552
#
# Disc length: 2132 seconds
#
# Revision: 2
# Processed by: cddbd v1.5.2PL0 Copyright (c) Steve Scherf et al.
# Submitted via: CDex 1.51
#
DISCID=50085207
DTITLE=Akron/Family - Meek Warrior
DYEAR=2006
DGENRE=Experimental Rock
TTITLE0=Blessing Force
TTITLE1=Gone Beyond
TTITLE2=Meek Warrior
TTITLE3=No Space in This Realm
TTITLE4=The Lightning Bolt of Compassion
TTITLE5=The Rider (Dolphin Song)
TTITLE6=Love and space
EXTD=YEAR: 2006
EXTT0=
EXTT1=
EXTT2=
EXTT3=
EXTT4=
EXTT5=
EXTT6=
PLAYORDER=
